<svg data-v-fde0c5aa="" xmlns="http://www.w3.org/2000/svg" viewBox="0 0 300 300" class="iconLeftSlogan"><!----><defs data-v-fde0c5aa=""><!----></defs><rect data-v-fde0c5aa="" fill="#003FBA" x="0" y="0" width="300px" height="300px" class="logo-background-square"></rect><defs data-v-fde0c5aa=""><!----></defs><g data-v-fde0c5aa="" id="941c2cee-1f36-41cf-8ce6-c5a276b8272e" fill="#ffffff" transform="matrix(2.6790829425623923,0,0,2.6790829425623923,111.01619592892288,120.40250812185776)"><path d="M3.60 12.46L3.60 12.46Q2.09 12.46 1.29 11.83L1.29 11.83L1.29 11.83Q0.50 11.20 0.50 10.25L0.50 10.25L0.50 10.25Q0.50 10.09 0.51 10.04L0.51 10.04L0.51 10.04Q0.52 10.00 0.52 9.98L0.52 9.98L1.93 9.98L1.93 10.11L1.93 10.11Q1.93 10.71 2.42 11.01L2.42 11.01L2.42 11.01Q2.91 11.31 3.67 11.31L3.67 11.31L3.67 11.31Q4.34 11.31 4.79 11.06L4.79 11.06L4.79 11.06Q5.25 10.81 5.25 10.35L5.25 10.35L5.25 10.35Q5.25 9.98 5.00 9.75L5.00 9.75L5.00 9.75Q4.75 9.52 4.38 9.39L4.38 9.39L4.38 9.39Q4.02 9.25 3.33 9.07L3.33 9.07L3.33 9.07Q2.49 8.86 1.96 8.65L1.96 8.65L1.96 8.65Q1.43 8.44 1.06 8.02L1.06 8.02L1.06 8.02Q0.69 7.60 0.69 6.90L0.69 6.90L0.69 6.90Q0.69 5.89 1.51 5.33L1.51 5.33L1.51 5.33Q2.34 4.76 3.71 4.76L3.71 4.76L3.71 4.76Q4.56 4.76 5.20 5.02L5.20 5.02L5.20 5.02Q5.84 5.28 6.18 5.74L6.18 5.74L6.18 5.74Q6.52 6.20 6.52 6.78L6.52 6.78L6.51 7.06L5.10 7.06L5.10 6.96L5.10 6.96Q5.10 6.50 4.73 6.21L4.73 6.21L4.73 6.21Q4.35 5.92 3.58 5.92L3.58 5.92L3.58 5.92Q2.84 5.92 2.50 6.18L2.50 6.18L2.50 6.18Q2.16 6.44 2.16 6.79L2.16 6.79L2.16 6.79Q2.16 7.22 2.58 7.43L2.58 7.43L2.58 7.43Q3.00 7.64 3.91 7.85L3.91 7.85L3.91 7.85Q4.79 8.06 5.35 8.28L5.35 8.28L5.35 8.28Q5.91 8.50 6.31 8.95L6.31 8.95L6.31 8.95Q6.72 9.41 6.72 10.16L6.72 10.16L6.72 10.16Q6.72 11.34 5.87 11.90L5.87 11.90L5.87 11.90Q5.03 12.46 3.60 12.46L3.60 12.46ZM10.09 12.46L10.09 12.46Q9.18 12.46 8.45 12.01L8.45 12.01L8.45 12.01Q7.71 11.56 7.71 10.39L7.71 10.39L7.71 10.39Q7.71 8.97 8.95 8.43L8.95 8.43L8.95 8.43Q10.18 7.88 12.47 7.88L12.47 7.88L12.47 7.15L12.47 7.15Q12.47 6.55 12.16 6.24L12.16 6.24L12.16 6.24Q11.84 5.92 10.99 5.92L10.99 5.92L10.99 5.92Q10.16 5.92 9.82 6.22L9.82 6.22L9.82 6.22Q9.48 6.51 9.48 6.93L9.48 6.93L9.48 7.11L8.08 7.11L8.08 7.11Q8.06 7.03 8.06 6.80L8.06 6.80L8.06 6.80Q8.06 5.84 8.88 5.30L8.88 5.30L8.88 5.30Q9.69 4.76 11.05 4.76L11.05 4.76L11.05 4.76Q12.47 4.76 13.20 5.35L13.20 5.35L13.20 5.35Q13.92 5.94 13.92 7.01L13.92 7.01L13.92 10.78L13.92 10.78Q13.92 11.03 14.06 11.15L14.06 11.15L14.06 11.15Q14.20 11.27 14.41 11.27L14.41 11.27L14.91 11.27L14.91 12.24L14.91 12.24Q14.55 12.42 13.92 12.42L13.92 12.42L13.92 12.42Q13.41 12.42 13.07 12.14L13.07 12.14L13.07 12.14Q12.73 11.87 12.61 11.40L12.61 11.40L12.52 11.40L12.52 11.40Q12.12 11.90 11.52 12.18L11.52 12.18L11.52 12.18Q10.91 12.46 10.09 12.46L10.09 12.46ZM10.51 11.28L10.51 11.28Q11.34 11.28 11.91 10.79L11.91 10.79L11.91 10.79Q12.47 10.29 12.47 9.42L12.47 9.42L12.47 8.97L12.47 8.97Q10.88 8.97 10.04 9.25L10.04 9.25L10.04 9.25Q9.20 9.52 9.20 10.28L9.20 10.28L9.20 10.28Q9.20 10.79 9.53 11.04L9.53 11.04L9.53 11.04Q9.86 11.28 10.51 11.28L10.51 11.28ZM15.97 12.29L15.97 4.93L17.14 4.93L17.28 5.91L17.37 5.91L17.37 5.91Q17.77 5.35 18.39 5.05L18.39 5.05L18.39 5.05Q19.01 4.76 19.80 4.76L19.80 4.76L19.80 4.76Q22.13 4.76 22.13 7.29L22.13 7.29L22.13 12.29L20.69 12.29L20.69 7.48L20.69 7.48Q20.69 6.65 20.32 6.32L20.32 6.32L20.32 6.32Q19.95 5.99 19.24 5.99L19.24 5.99L19.24 5.99Q18.75 5.99 18.33 6.24L18.33 6.24L18.33 6.24Q17.91 6.48 17.66 6.93L17.66 6.93L17.66 6.93Q17.42 7.38 17.42 7.97L17.42 7.97L17.42 12.29L15.97 12.29ZM24.09 12.29L24.09 2.69L28.99 2.69L28.99 2.69Q29.78 2.69 30.39 2.98L30.39 2.98L30.39 2.98Q31.00 3.28 31.34 3.81L31.34 3.81L31.34 3.81Q31.68 4.35 31.68 5.05L31.68 5.05L31.68 5.05Q31.68 5.85 31.24 6.44L31.24 6.44L31.24 6.44Q30.80 7.03 30.09 7.25L30.09 7.25L30.09 7.31L30.09 7.31Q30.93 7.49 31.44 8.11L31.44 8.11L31.44 8.11Q31.95 8.74 31.95 9.70L31.95 9.70L31.95 9.70Q31.95 10.99 31.14 11.64L31.14 11.64L31.14 11.64Q30.32 12.29 28.99 12.29L28.99 12.29L24.09 12.29ZM25.65 6.71L28.64 6.71L28.64 6.71Q29.30 6.71 29.70 6.33L29.70 6.33L29.70 6.33Q30.10 5.96 30.10 5.36L30.10 5.36L30.10 5.36Q30.10 4.69 29.74 4.35L29.74 4.35L29.74 4.35Q29.37 4.02 28.74 4.02L28.74 4.02L25.65 4.02L25.65 6.71ZM25.65 10.96L28.88 10.96L28.88 10.96Q29.58 10.96 29.97 10.61L29.97 10.61L29.97 10.61Q30.37 10.26 30.37 9.52L30.37 9.52L30.37 9.52Q30.37 8.79 29.96 8.41L29.96 8.41L29.96 8.41Q29.55 8.04 28.77 8.04L28.77 8.04L25.65 8.04L25.65 10.96ZM35.48 12.46L35.48 12.46Q34.57 12.46 33.83 12.01L33.83 12.01L33.83 12.01Q33.10 11.56 33.10 10.39L33.10 10.39L33.10 10.39Q33.10 8.97 34.33 8.43L34.33 8.43L34.33 8.43Q35.56 7.88 37.86 7.88L37.86 7.88L37.86 7.15L37.86 7.15Q37.86 6.55 37.54 6.24L37.54 6.24L37.54 6.24Q37.23 5.92 36.37 5.92L36.37 5.92L36.37 5.92Q35.55 5.92 35.20 6.22L35.20 6.22L35.20 6.22Q34.86 6.51 34.86 6.93L34.86 6.93L34.86 7.11L33.46 7.11L33.46 7.11Q33.45 7.03 33.45 6.80L33.45 6.80L33.45 6.80Q33.45 5.84 34.26 5.30L34.26 5.30L34.26 5.30Q35.07 4.76 36.43 4.76L36.43 4.76L36.43 4.76Q37.86 4.76 38.58 5.35L38.58 5.35L38.58 5.35Q39.30 5.94 39.30 7.01L39.30 7.01L39.30 10.78L39.30 10.78Q39.30 11.03 39.44 11.15L39.44 11.15L39.44 11.15Q39.58 11.27 39.79 11.27L39.79 11.27L40.29 11.27L40.29 12.24L40.29 12.24Q39.93 12.42 39.30 12.42L39.30 12.42L39.30 12.42Q38.79 12.42 38.45 12.14L38.45 12.14L38.45 12.14Q38.11 11.87 38.00 11.40L38.00 11.40L37.90 11.40L37.90 11.40Q37.51 11.90 36.90 12.18L36.90 12.18L36.90 12.18Q36.29 12.46 35.48 12.46L35.48 12.46ZM35.90 11.28L35.90 11.28Q36.72 11.28 37.29 10.79L37.29 10.79L37.29 10.79Q37.86 10.29 37.86 9.42L37.86 9.42L37.86 8.97L37.86 8.97Q36.26 8.97 35.42 9.25L35.42 9.25L35.42 9.25Q34.58 9.52 34.58 10.28L34.58 10.28L34.58 10.28Q34.58 10.79 34.91 11.04L34.91 11.04L34.91 11.04Q35.24 11.28 35.90 11.28L35.90 11.28ZM41.36 12.29L41.36 4.93L42.52 4.93L42.66 5.91L42.76 5.91L42.76 5.91Q43.15 5.35 43.77 5.05L43.77 5.05L43.77 5.05Q44.39 4.76 45.18 4.76L45.18 4.76L45.18 4.76Q47.52 4.76 47.52 7.29L47.52 7.29L47.52 12.29L46.07 12.29L46.07 7.48L46.07 7.48Q46.07 6.65 45.70 6.32L45.70 6.32L45.70 6.32Q45.33 5.99 44.62 5.99L44.62 5.99L44.62 5.99Q44.13 5.99 43.71 6.24L43.71 6.24L43.71 6.24Q43.29 6.48 43.04 6.93L43.04 6.93L43.04 6.93Q42.80 7.38 42.80 7.97L42.80 7.97L42.80 12.29L41.36 12.29ZM49.38 12.29L49.38 2.17L50.82 2.17L50.82 8.33L53.73 4.93L55.47 4.93L52.96 7.80L55.61 12.29L53.94 12.29L52.05 8.85L50.82 10.02L50.82 12.29L49.38 12.29Z"></path></g><defs data-v-fde0c5aa=""><!----></defs><g data-v-fde0c5aa="" id="5541012d-4416-41f5-a8e5-a261a5554d5d" stroke="none" fill="#34A1E5" transform="matrix(1.8548667937563776,0,0,1.8548667937563776,40,120.32213129989796)"><path d="M32 0H0v32h32V0zm-2.812 19.938H23.53C22.109 22.648 19.272 24.5 16 24.5s-6.109-1.852-7.529-4.562H2.812v-7.875H8.47C9.891 9.352 12.728 7.5 16 7.5s6.109 1.852 7.529 4.562h5.658v7.876z"></path></g><defs data-v-fde0c5aa=""><!----></defs><g data-v-fde0c5aa="" id="2af4a6bf-69ba-4ee2-9303-a8882b1f086c" fill="#ffffff" transform="matrix(0.4967340347290408,0,0,0.4967340347290408,112.27625995642389,162.42283042848925)"><path d="M0.66 5.35L0.16 5.33L0.16 5.33Q0.28 4.17 0.36 3.08L0.36 3.08L8.44 3.08L8.44 3.08Q8.36 4.13 8.33 4.53L8.33 4.53L8.33 4.53Q8.29 5.26 8.27 5.32L8.27 5.32L7.77 5.30L7.77 5.30Q7.85 4.34 7.85 4.16L7.85 4.16L7.85 4.16Q7.85 3.88 7.71 3.79L7.71 3.79L7.71 3.79Q7.54 3.69 7.14 3.69L7.14 3.69L5.53 3.69L5.53 3.69Q5.02 3.69 4.90 3.79L4.90 3.79L4.90 3.79Q4.81 3.87 4.80 4.36L4.80 4.36L4.80 11.22L4.80 11.22Q4.80 11.66 4.94 11.76L4.94 11.76L4.94 11.76Q5.10 11.87 5.61 11.87L5.61 11.87L6.17 11.87L6.19 12.41L2.50 12.40L2.50 11.87L2.71 11.87L2.71 11.87Q3.38 11.87 3.53 11.79L3.53 11.79L3.53 11.79Q3.67 11.70 3.67 11.28L3.67 11.28L3.67 4.48L3.67 4.48Q3.67 3.92 3.57 3.80L3.57 3.80L3.57 3.80Q3.47 3.69 3.05 3.69L3.05 3.69L1.58 3.69L1.58 3.69Q1.39 3.69 1.33 3.71L1.33 3.71L1.33 3.71Q1.26 3.72 1.15 3.72L1.15 3.72L1.15 3.72Q1.12 3.72 1.00 3.79L1.00 3.79L1.00 3.79Q0.92 3.84 0.90 3.86L0.90 3.86L0.90 3.86Q0.87 3.88 0.83 3.99L0.83 3.99L0.83 3.99Q0.80 4.05 0.77 4.14L0.77 4.14L0.77 4.14Q0.75 4.21 0.72 4.36L0.72 4.36L0.72 4.36Q0.70 4.59 0.70 4.61L0.70 4.61L0.70 4.61Q0.70 4.80 0.68 4.95L0.68 4.95L0.68 4.95Q0.68 5.02 0.68 5.15L0.68 5.15L0.68 5.15Q0.67 5.29 0.66 5.35L0.66 5.35ZM16.52 3.64L16.13 3.64L16.14 3.08L19.36 3.08L19.36 3.08Q20.49 3.08 21.10 3.21L21.10 3.21L21.10 3.21Q21.74 3.37 22.20 3.75L22.20 3.75L22.20 3.75Q23.21 4.57 23.21 5.71L23.21 5.71L23.21 5.71Q23.21 6.43 22.74 7.04L22.74 7.04L22.74 7.04Q22.24 7.66 21.21 7.92L21.21 7.92L23.90 11.49L23.90 11.49Q24.21 11.87 24.50 11.87L24.50 11.87L25.10 11.87L25.13 12.41L23.10 12.41L20.10 8.10L19.93 8.10L19.93 8.10Q19.89 8.10 19.84 8.11L19.84 8.11L19.84 8.11Q19.78 8.11 19.77 8.11L19.77 8.11L19.77 8.11Q18.89 8.11 18.49 8.03L18.49 8.03L18.49 11.46L18.49 11.46Q18.49 11.76 18.63 11.81L18.63 11.81L18.63 11.81Q18.76 11.87 19.46 11.87L19.46 11.87L20.17 11.87L20.15 12.41L16.42 12.41L16.42 11.87L16.74 11.87L16.74 11.87Q17.21 11.87 17.27 11.81L17.27 11.81L17.27 11.81Q17.36 11.74 17.36 11.46L17.36 11.46L17.36 4.14L17.36 4.14Q17.36 3.82 17.17 3.73L17.17 3.73L17.17 3.73Q16.94 3.64 16.52 3.64L16.52 3.64ZM18.49 4.28L18.49 7.57L18.49 7.57Q18.68 7.70 19.39 7.71L19.39 7.71L19.39 7.71Q20.66 7.71 21.24 7.27L21.24 7.27L21.24 7.27Q21.83 6.84 21.83 5.92L21.83 5.92L21.83 5.92Q21.83 4.92 21.05 4.27L21.05 4.27L21.05 4.27Q20.30 3.64 18.92 3.64L18.92 3.64L18.92 3.64Q18.66 3.64 18.58 3.75L18.58 3.75L18.58 3.75Q18.50 3.84 18.49 4.28L18.49 4.28ZM33.26 3.64L32.88 3.64L32.88 3.08L36.24 3.08L36.26 3.64L35.72 3.64L35.72 3.64Q35.29 3.64 35.14 3.73L35.14 3.73L35.14 3.73Q34.97 3.83 34.97 4.16L34.97 4.16L34.97 9.33L34.97 9.33Q34.97 9.63 35 9.78L35 9.78L35 9.78Q35.04 10.01 35.21 10.41L35.21 10.41L35.21 10.41Q35.38 10.80 35.67 11.09L35.67 11.09L35.67 11.09Q35.98 11.40 36.54 11.63L36.54 11.63L36.54 11.63Q37.11 11.85 37.89 11.85L37.89 11.85L37.89 11.85Q38.75 11.85 39.29 11.67L39.29 11.67L39.29 11.67Q39.85 11.48 40.16 11.22L40.16 11.22L40.16 11.22Q40.47 10.96 40.61 10.49L40.61 10.49L40.61 10.49Q40.78 9.95 40.79 9.66L40.79 9.66L40.79 9.66Q40.82 9.18 40.82 8.67L40.82 8.67L40.82 4.14L40.82 4.14Q40.82 3.81 40.68 3.72L40.68 3.72L40.68 3.72Q40.53 3.64 40.05 3.64L40.05 3.64L39.56 3.64L39.59 3.08L42.22 3.08L42.22 3.64L42.03 3.64L42.03 3.64Q41.71 3.64 41.59 3.75L41.59 3.75L41.59 3.75Q41.48 3.86 41.48 4.25L41.48 4.25L41.48 9.22L41.48 9.22Q41.48 12.67 37.89 12.67L37.89 12.67L37.89 12.67Q35.72 12.67 34.77 11.76L34.77 11.76L34.77 11.76Q33.84 10.86 33.84 9.41L33.84 9.41L33.84 4.14L33.84 4.14Q33.84 3.81 33.74 3.72L33.74 3.72L33.74 3.72Q33.63 3.64 33.26 3.64L33.26 3.64ZM49.93 10.04L49.93 10.04L50.42 9.98L50.61 10.85L50.61 10.85Q50.72 11.33 50.78 11.41L50.78 11.41L50.78 11.41Q50.85 11.49 51.26 11.64L51.26 11.64L51.26 11.64Q52.10 11.95 53.00 11.95L53.00 11.95L53.00 11.95Q53.79 11.95 54.33 11.49L54.33 11.49L54.33 11.49Q54.86 11.04 54.86 10.26L54.86 10.26L54.86 10.26Q54.86 9.65 54.40 9.21L54.40 9.21L54.40 9.21Q53.92 8.76 53.07 8.30L53.07 8.30L52.49 7.98L52.49 7.98Q51.75 7.55 51.52 7.36L51.52 7.36L51.52 7.36Q51.15 7.08 50.84 6.59L50.84 6.59L50.84 6.59Q50.53 6.10 50.53 5.46L50.53 5.46L50.53 5.46Q50.53 4.39 51.37 3.68L51.37 3.68L51.37 3.68Q52.21 2.97 53.32 2.97L53.32 2.97L53.32 2.97Q53.60 2.97 53.95 3.04L53.95 3.04L53.95 3.04Q54.15 3.08 54.48 3.17L54.48 3.17L54.72 3.25L54.72 3.25Q54.82 3.25 54.86 3.16L54.86 3.16L54.86 3.16Q54.91 3.05 54.91 2.98L54.91 2.98L54.93 2.88L55.41 2.85L55.62 5.41L55.11 5.43L54.99 4.18L54.99 4.18Q54.24 3.62 53.08 3.62L53.08 3.62L53.08 3.62Q52.44 3.62 51.93 4.05L51.93 4.05L51.93 4.05Q51.45 4.47 51.45 5.12L51.45 5.12L51.45 5.12Q51.45 5.72 51.91 6.17L51.91 6.17L51.91 6.17Q52.34 6.60 53.20 7.08L53.20 7.08L53.98 7.50L53.98 7.50Q54.93 8.03 55.46 8.59L55.46 8.59L55.46 8.59Q55.99 9.15 55.99 9.92L55.99 9.92L55.99 9.92Q55.99 10.99 55.14 11.76L55.14 11.76L55.14 11.76Q54.27 12.54 52.81 12.54L52.81 12.54L52.81 12.54Q52.25 12.54 51.75 12.41L51.75 12.41L51.75 12.41Q51.25 12.29 51.19 12.29L51.19 12.29L51.19 12.29Q50.94 12.29 50.94 12.58L50.94 12.58L50.96 12.76L50.48 12.80L50.48 12.80Q50.42 12.41 49.93 10.04ZM64.46 5.35L63.96 5.33L63.96 5.33Q64.08 4.17 64.16 3.08L64.16 3.08L72.24 3.08L72.24 3.08Q72.16 4.13 72.13 4.53L72.13 4.53L72.13 4.53Q72.09 5.26 72.07 5.32L72.07 5.32L71.57 5.30L71.57 5.30Q71.65 4.34 71.65 4.16L71.65 4.16L71.65 4.16Q71.65 3.88 71.51 3.79L71.51 3.79L71.51 3.79Q71.34 3.69 70.94 3.69L70.94 3.69L69.33 3.69L69.33 3.69Q68.82 3.69 68.70 3.79L68.70 3.79L68.70 3.79Q68.61 3.87 68.60 4.36L68.60 4.36L68.60 11.22L68.60 11.22Q68.60 11.66 68.74 11.76L68.74 11.76L68.74 11.76Q68.90 11.87 69.41 11.87L69.41 11.87L69.97 11.87L69.99 12.41L66.29 12.40L66.29 11.87L66.51 11.87L66.51 11.87Q67.18 11.87 67.33 11.79L67.33 11.79L67.33 11.79Q67.47 11.70 67.47 11.28L67.47 11.28L67.47 4.48L67.47 4.48Q67.47 3.92 67.37 3.80L67.37 3.80L67.37 3.80Q67.27 3.69 66.85 3.69L66.85 3.69L65.38 3.69L65.38 3.69Q65.19 3.69 65.13 3.71L65.13 3.71L65.13 3.71Q65.06 3.72 64.95 3.72L64.95 3.72L64.95 3.72Q64.92 3.72 64.80 3.79L64.80 3.79L64.80 3.79Q64.72 3.84 64.70 3.86L64.70 3.86L64.70 3.86Q64.67 3.88 64.63 3.99L64.63 3.99L64.63 3.99Q64.60 4.05 64.57 4.14L64.57 4.14L64.57 4.14Q64.54 4.21 64.52 4.36L64.52 4.36L64.52 4.36Q64.50 4.59 64.50 4.61L64.50 4.61L64.50 4.61Q64.50 4.80 64.48 4.95L64.48 4.95L64.48 4.95Q64.48 5.02 64.48 5.15L64.48 5.15L64.48 5.15Q64.47 5.29 64.46 5.35L64.46 5.35ZM89.52 10.04L89.52 10.04L90.02 9.98L90.20 10.85L90.20 10.85Q90.31 11.33 90.38 11.41L90.38 11.41L90.38 11.41Q90.45 11.49 90.86 11.64L90.86 11.64L90.86 11.64Q91.70 11.95 92.59 11.95L92.59 11.95L92.59 11.95Q93.38 11.95 93.92 11.49L93.92 11.49L93.92 11.49Q94.45 11.04 94.45 10.26L94.45 10.26L94.45 10.26Q94.45 9.65 93.99 9.21L93.99 9.21L93.99 9.21Q93.52 8.76 92.66 8.30L92.66 8.30L92.09 7.98L92.09 7.98Q91.34 7.55 91.11 7.36L91.11 7.36L91.11 7.36Q90.75 7.08 90.44 6.59L90.44 6.59L90.44 6.59Q90.13 6.10 90.13 5.46L90.13 5.46L90.13 5.46Q90.13 4.39 90.97 3.68L90.97 3.68L90.97 3.68Q91.81 2.97 92.91 2.97L92.91 2.97L92.91 2.97Q93.19 2.97 93.54 3.04L93.54 3.04L93.54 3.04Q93.74 3.08 94.08 3.17L94.08 3.17L94.32 3.25L94.32 3.25Q94.41 3.25 94.45 3.16L94.45 3.16L94.45 3.16Q94.51 3.05 94.51 2.98L94.51 2.98L94.52 2.88L95.00 2.85L95.21 5.41L94.71 5.43L94.58 4.18L94.58 4.18Q93.84 3.62 92.67 3.62L92.67 3.62L92.67 3.62Q92.03 3.62 91.53 4.05L91.53 4.05L91.53 4.05Q91.05 4.47 91.05 5.12L91.05 5.12L91.05 5.12Q91.05 5.72 91.50 6.17L91.50 6.17L91.50 6.17Q91.93 6.60 92.80 7.08L92.80 7.08L93.57 7.50L93.57 7.50Q94.52 8.03 95.05 8.59L95.05 8.59L95.05 8.59Q95.59 9.15 95.59 9.92L95.59 9.92L95.59 9.92Q95.59 10.99 94.73 11.76L94.73 11.76L94.73 11.76Q93.86 12.54 92.41 12.54L92.41 12.54L92.41 12.54Q91.85 12.54 91.35 12.41L91.35 12.41L91.35 12.41Q90.84 12.29 90.79 12.29L90.79 12.29L90.79 12.29Q90.54 12.29 90.54 12.58L90.54 12.58L90.55 12.76L90.07 12.80L90.07 12.80Q90.01 12.41 89.52 10.04ZM103.78 12.41L103.77 11.87L103.94 11.87L103.94 11.87Q104.33 11.87 104.46 11.73L104.46 11.73L104.46 11.73Q104.58 11.57 104.92 10.83L104.92 10.83L105.83 8.82L106.40 7.53L106.40 7.53Q106.67 6.97 106.71 6.86L106.71 6.86L106.71 6.86Q106.78 6.70 106.83 6.60L106.83 6.60L106.83 6.60Q106.88 6.51 106.89 6.45L106.89 6.45L106.99 6.21L108.42 2.74L108.71 2.74L108.71 2.74Q109.57 4.98 111.75 10.25L111.75 10.25L111.75 10.25Q112.21 11.34 112.40 11.64L112.40 11.64L112.40 11.64Q112.53 11.87 112.97 11.87L112.97 11.87L113.18 11.87L113.17 12.41L109.98 12.41L109.99 11.87L110.41 11.87L110.41 11.87Q111.02 11.87 111.02 11.70L111.02 11.70L111.02 11.70Q111.02 11.63 110.89 11.27L110.89 11.27L109.85 8.72L106.60 8.72L105.49 11.18L105.49 11.18Q105.36 11.50 105.36 11.63L105.36 11.63L105.36 11.63Q105.36 11.79 105.45 11.83L105.45 11.83L105.45 11.83Q105.55 11.87 105.93 11.87L105.93 11.87L106.50 11.87L106.50 12.41L103.78 12.41ZM108.28 4.79L106.87 8.10L109.61 8.10L108.28 4.79ZM120.93 3.64L120.91 3.08L128.10 3.08L128.10 3.08Q128.11 4.14 128.17 5.28L128.17 5.28L127.62 5.30L127.62 5.30Q127.61 4.66 127.55 4.25L127.55 4.25L127.55 4.25Q127.51 3.89 127.46 3.80L127.46 3.80L127.46 3.80Q127.40 3.71 127.29 3.69L127.29 3.69L127.29 3.69Q127.19 3.68 126.60 3.68L126.60 3.68L124.22 3.68L124.22 3.68Q123.68 3.68 123.53 3.77L123.53 3.77L123.53 3.77Q123.41 3.86 123.41 4.33L123.41 4.33L123.41 6.28L123.41 6.28Q123.41 6.69 123.46 6.76L123.46 6.76L123.46 6.76Q123.53 6.84 123.87 6.84L123.87 6.84L125.99 6.84L125.99 6.84Q126.35 6.84 126.43 6.74L126.43 6.74L126.43 6.74Q126.51 6.64 126.51 6.17L126.51 6.17L126.51 5.63L127.03 5.63L127.03 8.97L126.51 8.97L126.51 8.26L126.51 8.26Q126.51 7.68 126.43 7.57L126.43 7.57L126.43 7.57Q126.35 7.46 126.01 7.46L126.01 7.46L123.92 7.46L123.92 7.46Q123.58 7.46 123.49 7.54L123.49 7.54L123.49 7.54Q123.41 7.63 123.41 7.89L123.41 7.89L123.41 11.20L123.41 11.20Q123.41 11.60 123.48 11.73L123.48 11.73L123.48 11.73Q123.56 11.87 123.83 11.87L123.83 11.87L124.76 11.87L124.76 12.41L121.17 12.41L121.17 11.87L121.58 11.87L121.58 11.87Q122.08 11.87 122.18 11.79L122.18 11.79L122.18 11.79Q122.27 11.70 122.27 11.33L122.27 11.33L122.27 4.24L122.27 4.24Q122.27 3.79 122.10 3.71L122.10 3.71L122.10 3.71Q121.97 3.64 120.93 3.64L120.93 3.64ZM136.23 3.64L136.21 3.08L143.42 3.08L143.42 3.08Q143.44 4.14 143.49 5.28L143.49 5.28L142.95 5.30L142.95 5.30Q142.93 4.66 142.88 4.25L142.88 4.25L142.88 4.25Q142.84 3.89 142.78 3.80L142.78 3.80L142.78 3.80Q142.73 3.71 142.61 3.69L142.61 3.69L142.61 3.69Q142.52 3.68 141.93 3.68L141.93 3.68L139.55 3.68L139.55 3.68Q139.00 3.68 138.86 3.77L138.86 3.77L138.86 3.77Q138.74 3.86 138.74 4.33L138.74 4.33L138.74 6.28L138.74 6.28Q138.74 6.69 138.79 6.76L138.79 6.76L138.79 6.76Q138.86 6.84 139.20 6.84L139.20 6.84L141.31 6.84L141.31 6.84Q141.67 6.84 141.76 6.73L141.76 6.73L141.76 6.73Q141.84 6.63 141.85 6.14L141.85 6.14L141.85 5.61L142.36 5.63L142.36 8.97L141.85 8.97L141.85 8.24L141.85 8.24Q141.85 7.66 141.77 7.57L141.77 7.57L141.77 7.57Q141.69 7.46 141.34 7.46L141.34 7.46L139.24 7.46L139.24 7.46Q138.91 7.46 138.82 7.54L138.82 7.54L138.82 7.54Q138.74 7.63 138.74 7.89L138.74 7.89L138.74 11.20L138.74 11.20Q138.74 11.57 138.82 11.67L138.82 11.67L138.82 11.67Q138.91 11.77 139.18 11.77L139.18 11.77L139.18 11.77Q142.10 11.75 142.63 11.69L142.63 11.69L142.63 11.69Q143.14 11.63 143.23 11.38L143.23 11.38L143.23 11.36L143.24 11.35L143.47 10.17L143.94 10.25L143.60 12.41L136.49 12.41L136.49 11.87L136.86 11.87L136.86 11.87Q137.42 11.87 137.50 11.80L137.50 11.80L137.50 11.80Q137.60 11.72 137.60 11.33L137.60 11.33L137.60 4.24L137.60 4.24Q137.60 3.82 137.45 3.73L137.45 3.73L137.45 3.73Q137.28 3.64 136.62 3.64L136.62 3.64L136.23 3.64ZM161.40 12.41L161.39 11.87L161.56 11.87L161.56 11.87Q161.95 11.87 162.08 11.73L162.08 11.73L162.08 11.73Q162.20 11.57 162.54 10.83L162.54 10.83L163.45 8.82L164.02 7.53L164.02 7.53Q164.29 6.97 164.33 6.86L164.33 6.86L164.33 6.86Q164.40 6.70 164.45 6.60L164.45 6.60L164.45 6.60Q164.50 6.51 164.51 6.45L164.51 6.45L164.61 6.21L166.04 2.74L166.33 2.74L166.33 2.74Q167.19 4.98 169.37 10.25L169.37 10.25L169.37 10.25Q169.83 11.34 170.02 11.64L170.02 11.64L170.02 11.64Q170.15 11.87 170.59 11.87L170.59 11.87L170.80 11.87L170.79 12.41L167.60 12.41L167.61 11.87L168.03 11.87L168.03 11.87Q168.64 11.87 168.64 11.70L168.64 11.70L168.64 11.70Q168.64 11.63 168.51 11.27L168.51 11.27L167.47 8.72L164.22 8.72L163.11 11.18L163.11 11.18Q162.98 11.50 162.98 11.63L162.98 11.63L162.98 11.63Q162.98 11.79 163.07 11.83L163.07 11.83L163.07 11.83Q163.17 11.87 163.55 11.87L163.55 11.87L164.12 11.87L164.12 12.41L161.40 12.41ZM165.90 4.79L164.49 8.10L167.23 8.10L165.90 4.79ZM178.55 3.64L178.53 3.08L180.71 3.08L186.44 10.48L186.44 4.14L186.44 4.14Q186.44 3.81 186.29 3.72L186.29 3.72L186.29 3.72Q186.14 3.64 185.68 3.64L185.68 3.64L185.19 3.64L185.21 3.08L188.19 3.08L188.19 3.64L187.87 3.64L187.87 3.64Q187.41 3.64 187.26 3.75L187.26 3.75L187.26 3.75Q187.11 3.86 187.11 4.25L187.11 4.25L187.11 12.32L187.11 12.47L187.11 12.47Q187.11 12.52 187.09 12.57L187.09 12.57L187.09 12.57Q187.08 12.61 187.04 12.64L187.04 12.64L187.04 12.64Q187.03 12.65 186.98 12.65L186.98 12.65L186.79 12.65L186.72 12.65L186.70 12.65L186.67 12.64L186.67 12.64Q186.64 12.64 186.63 12.63L186.63 12.63L186.63 12.63Q186.61 12.61 186.61 12.60L186.61 12.60L186.61 12.60Q186.61 12.58 186.60 12.57L186.60 12.57L186.60 12.57Q186.57 12.54 186.55 12.50L186.55 12.50L186.55 12.50Q186.53 12.48 186.51 12.45L186.51 12.45L186.51 12.45Q186.49 12.41 186.48 12.40L186.48 12.40L180.37 4.56L180.44 11.22L180.44 11.22Q180.44 11.67 180.61 11.77L180.61 11.77L180.61 11.77Q180.76 11.87 181.47 11.87L181.47 11.87L181.71 11.87L181.71 12.41L178.77 12.41L178.77 11.87L179.20 11.87L179.20 11.87Q179.57 11.87 179.68 11.76L179.68 11.76L179.68 11.76Q179.78 11.66 179.79 11.25L179.79 11.25L179.79 3.80L179.64 3.64L178.55 3.64ZM195.97 3.64L195.93 3.08L199.71 3.08L199.71 3.08Q201.03 3.08 201.90 3.19L201.90 3.19L201.90 3.19Q202.72 3.29 203.41 3.69L203.41 3.69L203.41 3.69Q204.36 4.27 204.87 5.24L204.87 5.24L204.87 5.24Q205.36 6.21 205.36 7.39L205.36 7.39L205.36 7.39Q205.36 8.05 205.21 8.65L205.21 8.65L205.21 8.65Q205.06 9.29 204.67 9.98L204.67 9.98L204.67 9.98Q204.24 10.73 203.68 11.21L203.68 11.21L203.68 11.21Q203.05 11.76 202.08 12.08L202.08 12.08L202.08 12.08Q201.07 12.41 199.80 12.41L199.80 12.41L196.18 12.41L196.17 11.87L196.55 11.87L196.55 11.87Q197.07 11.87 197.17 11.79L197.17 11.79L197.17 11.79Q197.28 11.70 197.28 11.25L197.28 11.25L197.28 4.14L197.28 4.14Q197.28 3.77 197.18 3.71L197.18 3.71L197.18 3.71Q197.07 3.64 196.56 3.64L196.56 3.64L195.97 3.64ZM198.41 4.39L198.41 11.22L198.41 11.22Q198.41 11.67 198.58 11.77L198.58 11.77L198.58 11.77Q198.73 11.87 199.60 11.87L199.60 11.87L199.60 11.87Q200.66 11.87 201.45 11.61L201.45 11.61L201.45 11.61Q202.30 11.35 202.74 10.99L202.74 10.99L202.74 10.99Q203.23 10.58 203.54 10.05L203.54 10.05L203.54 10.05Q203.84 9.52 203.97 8.96L203.97 8.96L203.97 8.96Q204.09 8.41 204.09 7.82L204.09 7.82L204.09 7.82Q204.09 7.03 203.83 6.34L203.83 6.34L203.83 6.34Q203.56 5.65 203.03 5.05L203.03 5.05L203.03 5.05Q202.50 4.46 201.59 4.09L201.59 4.09L201.59 4.09Q200.67 3.73 199.51 3.73L199.51 3.73L198.99 3.73L198.99 3.73Q198.63 3.73 198.52 3.85L198.52 3.85L198.52 3.85Q198.41 3.99 198.41 4.39L198.41 4.39ZM223.23 3.64L222.84 3.64L222.86 3.08L226.08 3.08L226.08 3.08Q227.21 3.08 227.81 3.21L227.81 3.21L227.81 3.21Q228.46 3.37 228.92 3.75L228.92 3.75L228.92 3.75Q229.93 4.57 229.93 5.71L229.93 5.71L229.93 5.71Q229.93 6.43 229.46 7.04L229.46 7.04L229.46 7.04Q228.96 7.66 227.93 7.92L227.93 7.92L230.62 11.49L230.62 11.49Q230.92 11.87 231.22 11.87L231.22 11.87L231.82 11.87L231.85 12.41L229.82 12.41L226.82 8.10L226.65 8.10L226.65 8.10Q226.61 8.10 226.56 8.11L226.56 8.11L226.56 8.11Q226.50 8.11 226.49 8.11L226.49 8.11L226.49 8.11Q225.61 8.11 225.21 8.03L225.21 8.03L225.21 11.46L225.21 11.46Q225.21 11.76 225.35 11.81L225.35 11.81L225.35 11.81Q225.48 11.87 226.18 11.87L226.18 11.87L226.89 11.87L226.86 12.41L223.14 12.41L223.14 11.87L223.46 11.87L223.46 11.87Q223.92 11.87 223.99 11.81L223.99 11.81L223.99 11.81Q224.08 11.74 224.08 11.46L224.08 11.46L224.08 4.14L224.08 4.14Q224.08 3.82 223.88 3.73L223.88 3.73L223.88 3.73Q223.66 3.64 223.23 3.64L223.23 3.64ZM225.21 4.28L225.21 7.57L225.21 7.57Q225.39 7.70 226.11 7.71L226.11 7.71L226.11 7.71Q227.38 7.71 227.96 7.27L227.96 7.27L227.96 7.27Q228.55 6.84 228.55 5.92L228.55 5.92L228.55 5.92Q228.55 4.92 227.77 4.27L227.77 4.27L227.77 4.27Q227.01 3.64 225.63 3.64L225.63 3.64L225.63 3.64Q225.38 3.64 225.30 3.75L225.30 3.75L225.30 3.75Q225.22 3.84 225.21 4.28L225.21 4.28ZM239.61 3.64L239.60 3.08L246.81 3.08L246.81 3.08Q246.83 4.14 246.88 5.28L246.88 5.28L246.33 5.30L246.33 5.30Q246.32 4.66 246.26 4.25L246.26 4.25L246.26 4.25Q246.22 3.89 246.17 3.80L246.17 3.80L246.17 3.80Q246.11 3.71 246.00 3.69L246.00 3.69L246.00 3.69Q245.90 3.68 245.31 3.68L245.31 3.68L242.94 3.68L242.94 3.68Q242.39 3.68 242.25 3.77L242.25 3.77L242.25 3.77Q242.12 3.86 242.12 4.33L242.12 4.33L242.12 6.28L242.12 6.28Q242.12 6.69 242.18 6.76L242.18 6.76L242.18 6.76Q242.25 6.84 242.59 6.84L242.59 6.84L244.70 6.84L244.70 6.84Q245.06 6.84 245.14 6.73L245.14 6.73L245.14 6.73Q245.23 6.63 245.23 6.14L245.23 6.14L245.23 5.61L245.75 5.63L245.75 8.97L245.23 8.97L245.23 8.24L245.23 8.24Q245.23 7.66 245.16 7.57L245.16 7.57L245.16 7.57Q245.08 7.46 244.73 7.46L244.73 7.46L242.63 7.46L242.63 7.46Q242.29 7.46 242.21 7.54L242.21 7.54L242.21 7.54Q242.12 7.63 242.12 7.89L242.12 7.89L242.12 11.20L242.12 11.20Q242.12 11.57 242.21 11.67L242.21 11.67L242.21 11.67Q242.29 11.77 242.57 11.77L242.57 11.77L242.57 11.77Q245.49 11.75 246.01 11.69L246.01 11.69L246.01 11.69Q246.53 11.63 246.61 11.38L246.61 11.38L246.62 11.36L246.63 11.35L246.85 10.17L247.33 10.25L246.98 12.41L239.88 12.41L239.88 11.87L240.25 11.87L240.25 11.87Q240.81 11.87 240.89 11.80L240.89 11.80L240.89 11.80Q240.99 11.72 240.99 11.33L240.99 11.33L240.99 4.24L240.99 4.24Q240.99 3.82 240.84 3.73L240.84 3.73L240.84 3.73Q240.67 3.64 240.01 3.64L240.01 3.64L239.61 3.64ZM255.70 3.64L255.21 3.64L255.22 3.08L258.81 3.08L258.81 3.64L258.17 3.64L258.17 3.64Q257.80 3.64 257.68 3.72L257.68 3.72L257.68 3.72Q257.57 3.80 257.57 4.16L257.57 4.16L257.57 11.22L257.57 11.22Q257.57 11.57 257.66 11.67L257.66 11.67L257.66 11.67Q257.74 11.77 258.04 11.77L258.04 11.77L258.04 11.77Q260.91 11.74 261.56 11.63L261.56 11.63L261.56 11.63Q261.78 11.61 261.86 11.39L261.86 11.39L261.86 11.39Q261.94 11.17 262.14 10.05L262.14 10.05L262.63 10.08L262.17 12.41L255.40 12.41L255.39 11.87L255.78 11.87L255.78 11.87Q256.29 11.87 256.35 11.80L256.35 11.80L256.35 11.80Q256.44 11.72 256.44 11.33L256.44 11.33L256.44 4.09L256.44 4.09Q256.44 3.80 256.29 3.72L256.29 3.72L256.29 3.72Q256.14 3.64 255.70 3.64L255.70 3.64ZM270.38 12.41L270.36 11.87L270.53 11.87L270.53 11.87Q270.92 11.87 271.05 11.73L271.05 11.73L271.05 11.73Q271.17 11.57 271.51 10.83L271.51 10.83L272.42 8.82L272.99 7.53L272.99 7.53Q273.26 6.97 273.30 6.86L273.30 6.86L273.30 6.86Q273.37 6.70 273.42 6.60L273.42 6.60L273.42 6.60Q273.47 6.51 273.49 6.45L273.49 6.45L273.58 6.21L275.01 2.74L275.30 2.74L275.30 2.74Q276.16 4.98 278.35 10.25L278.35 10.25L278.35 10.25Q278.80 11.34 278.99 11.64L278.99 11.64L278.99 11.64Q279.13 11.87 279.56 11.87L279.56 11.87L279.77 11.87L279.76 12.41L276.57 12.41L276.58 11.87L277.00 11.87L277.00 11.87Q277.61 11.87 277.61 11.70L277.61 11.70L277.61 11.70Q277.61 11.63 277.48 11.27L277.48 11.27L276.44 8.72L273.19 8.72L272.08 11.18L272.08 11.18Q271.95 11.50 271.95 11.63L271.95 11.63L271.95 11.63Q271.95 11.79 272.04 11.83L272.04 11.83L272.04 11.83Q272.14 11.87 272.52 11.87L272.52 11.87L273.10 11.87L273.10 12.41L270.38 12.41ZM274.87 4.79L273.46 8.10L276.20 8.10L274.87 4.79ZM290.49 12.41L287.51 12.41L287.51 11.87L287.51 11.87Q287.59 11.87 287.71 11.86L287.71 11.86L287.71 11.86Q287.83 11.85 287.85 11.85L287.85 11.85L288.09 11.85L288.09 11.85Q288.22 11.85 288.31 11.81L288.31 11.81L288.45 11.74L288.45 11.74Q288.51 11.72 288.61 11.61L288.61 11.61L288.61 11.61Q288.65 11.57 288.71 11.52L288.71 11.52L288.71 11.52Q288.76 11.46 288.77 11.45L288.77 11.45L288.99 11.20L288.99 11.20Q289.21 10.94 289.26 10.90L289.26 10.90L291.93 7.88L289.17 4.39L289.17 4.39Q288.71 3.81 288.56 3.72L288.56 3.72L288.56 3.72Q288.42 3.64 287.75 3.64L287.75 3.64L287.75 3.08L291.30 3.08L291.30 3.64L290.92 3.64L290.92 3.64Q290.63 3.64 290.46 3.66L290.46 3.66L290.46 3.66Q290.34 3.68 290.34 3.77L290.34 3.77L290.34 3.77Q290.34 3.90 290.84 4.60L290.84 4.60L292.66 7.04L294.53 4.92L294.53 4.92Q295.01 4.38 295.22 4.09L295.22 4.09L295.22 4.09Q295.35 3.92 295.35 3.82L295.35 3.82L295.35 3.82Q295.35 3.64 294.69 3.64L294.69 3.64L294.30 3.64L294.31 3.08L297.31 3.08L297.31 3.64L297.31 3.64Q296.64 3.64 296.50 3.71L296.50 3.71L296.50 3.71Q296.32 3.79 295.88 4.28L295.88 4.28L293.01 7.44L294.80 9.73L294.80 9.73Q295.98 11.24 296.33 11.56L296.33 11.56L296.33 11.56Q296.65 11.87 297.14 11.87L297.14 11.87L297.38 11.87L297.39 12.41L293.78 12.41L293.78 11.87L294.12 11.87L294.12 11.87Q294.81 11.87 294.81 11.69L294.81 11.69L294.81 11.69Q294.81 11.59 294.24 10.85L294.24 10.85L292.27 8.31L289.75 11.22L289.75 11.22Q289.43 11.59 289.43 11.73L289.43 11.73L289.43 11.73Q289.43 11.87 289.99 11.87L289.99 11.87L290.49 11.87L290.49 12.41Z"></path></g></svg>