<svg data-v-fde0c5aa="" xmlns="http://www.w3.org/2000/svg" viewBox="0 0 300 300" class="font"><!----><defs data-v-fde0c5aa=""><!----></defs><rect data-v-fde0c5aa="" fill="#003FBA" x="0" y="0" width="300px" height="300px" class="logo-background-square"></rect><defs data-v-fde0c5aa=""><!----></defs><g data-v-fde0c5aa="" id="d55f320c-3b36-49e4-8f25-04bb674295a1" fill="#34A1E5" transform="matrix(3.9920159238516937,0,0,3.9920159238516937,38.00399203807415,120.79840328859987)"><path d="M3.60 12.46L3.60 12.46Q2.09 12.46 1.29 11.83L1.29 11.83L1.29 11.83Q0.50 11.20 0.50 10.25L0.50 10.25L0.50 10.25Q0.50 10.09 0.51 10.04L0.51 10.04L0.51 10.04Q0.52 10.00 0.52 9.98L0.52 9.98L1.93 9.98L1.93 10.11L1.93 10.11Q1.93 10.71 2.42 11.01L2.42 11.01L2.42 11.01Q2.91 11.31 3.67 11.31L3.67 11.31L3.67 11.31Q4.34 11.31 4.79 11.06L4.79 11.06L4.79 11.06Q5.25 10.81 5.25 10.35L5.25 10.35L5.25 10.35Q5.25 9.98 5.00 9.75L5.00 9.75L5.00 9.75Q4.75 9.52 4.38 9.39L4.38 9.39L4.38 9.39Q4.02 9.25 3.33 9.07L3.33 9.07L3.33 9.07Q2.49 8.86 1.96 8.65L1.96 8.65L1.96 8.65Q1.43 8.44 1.06 8.02L1.06 8.02L1.06 8.02Q0.69 7.60 0.69 6.90L0.69 6.90L0.69 6.90Q0.69 5.89 1.51 5.33L1.51 5.33L1.51 5.33Q2.34 4.76 3.71 4.76L3.71 4.76L3.71 4.76Q4.56 4.76 5.20 5.02L5.20 5.02L5.20 5.02Q5.84 5.28 6.18 5.74L6.18 5.74L6.18 5.74Q6.52 6.20 6.52 6.78L6.52 6.78L6.51 7.06L5.10 7.06L5.10 6.96L5.10 6.96Q5.10 6.50 4.73 6.21L4.73 6.21L4.73 6.21Q4.35 5.92 3.58 5.92L3.58 5.92L3.58 5.92Q2.84 5.92 2.50 6.18L2.50 6.18L2.50 6.18Q2.16 6.44 2.16 6.79L2.16 6.79L2.16 6.79Q2.16 7.22 2.58 7.43L2.58 7.43L2.58 7.43Q3.00 7.64 3.91 7.85L3.91 7.85L3.91 7.85Q4.79 8.06 5.35 8.28L5.35 8.28L5.35 8.28Q5.91 8.50 6.31 8.95L6.31 8.95L6.31 8.95Q6.72 9.41 6.72 10.16L6.72 10.16L6.72 10.16Q6.72 11.34 5.87 11.90L5.87 11.90L5.87 11.90Q5.03 12.46 3.60 12.46L3.60 12.46ZM10.09 12.46L10.09 12.46Q9.18 12.46 8.45 12.01L8.45 12.01L8.45 12.01Q7.71 11.56 7.71 10.39L7.71 10.39L7.71 10.39Q7.71 8.97 8.95 8.43L8.95 8.43L8.95 8.43Q10.18 7.88 12.47 7.88L12.47 7.88L12.47 7.15L12.47 7.15Q12.47 6.55 12.16 6.24L12.16 6.24L12.16 6.24Q11.84 5.92 10.99 5.92L10.99 5.92L10.99 5.92Q10.16 5.92 9.82 6.22L9.82 6.22L9.82 6.22Q9.48 6.51 9.48 6.93L9.48 6.93L9.48 7.11L8.08 7.11L8.08 7.11Q8.06 7.03 8.06 6.80L8.06 6.80L8.06 6.80Q8.06 5.84 8.88 5.30L8.88 5.30L8.88 5.30Q9.69 4.76 11.05 4.76L11.05 4.76L11.05 4.76Q12.47 4.76 13.20 5.35L13.20 5.35L13.20 5.35Q13.92 5.94 13.92 7.01L13.92 7.01L13.92 10.78L13.92 10.78Q13.92 11.03 14.06 11.15L14.06 11.15L14.06 11.15Q14.20 11.27 14.41 11.27L14.41 11.27L14.91 11.27L14.91 12.24L14.91 12.24Q14.55 12.42 13.92 12.42L13.92 12.42L13.92 12.42Q13.41 12.42 13.07 12.14L13.07 12.14L13.07 12.14Q12.73 11.87 12.61 11.40L12.61 11.40L12.52 11.40L12.52 11.40Q12.12 11.90 11.52 12.18L11.52 12.18L11.52 12.18Q10.91 12.46 10.09 12.46L10.09 12.46ZM10.51 11.28L10.51 11.28Q11.34 11.28 11.91 10.79L11.91 10.79L11.91 10.79Q12.47 10.29 12.47 9.42L12.47 9.42L12.47 8.97L12.47 8.97Q10.88 8.97 10.04 9.25L10.04 9.25L10.04 9.25Q9.20 9.52 9.20 10.28L9.20 10.28L9.20 10.28Q9.20 10.79 9.53 11.04L9.53 11.04L9.53 11.04Q9.86 11.28 10.51 11.28L10.51 11.28ZM15.97 12.29L15.97 4.93L17.14 4.93L17.28 5.91L17.37 5.91L17.37 5.91Q17.77 5.35 18.39 5.05L18.39 5.05L18.39 5.05Q19.01 4.76 19.80 4.76L19.80 4.76L19.80 4.76Q22.13 4.76 22.13 7.29L22.13 7.29L22.13 12.29L20.69 12.29L20.69 7.48L20.69 7.48Q20.69 6.65 20.32 6.32L20.32 6.32L20.32 6.32Q19.95 5.99 19.24 5.99L19.24 5.99L19.24 5.99Q18.75 5.99 18.33 6.24L18.33 6.24L18.33 6.24Q17.91 6.48 17.66 6.93L17.66 6.93L17.66 6.93Q17.42 7.38 17.42 7.97L17.42 7.97L17.42 12.29L15.97 12.29ZM24.09 12.29L24.09 2.69L28.99 2.69L28.99 2.69Q29.78 2.69 30.39 2.98L30.39 2.98L30.39 2.98Q31.00 3.28 31.34 3.81L31.34 3.81L31.34 3.81Q31.68 4.35 31.68 5.05L31.68 5.05L31.68 5.05Q31.68 5.85 31.24 6.44L31.24 6.44L31.24 6.44Q30.80 7.03 30.09 7.25L30.09 7.25L30.09 7.31L30.09 7.31Q30.93 7.49 31.44 8.11L31.44 8.11L31.44 8.11Q31.95 8.74 31.95 9.70L31.95 9.70L31.95 9.70Q31.95 10.99 31.14 11.64L31.14 11.64L31.14 11.64Q30.32 12.29 28.99 12.29L28.99 12.29L24.09 12.29ZM25.65 6.71L28.64 6.71L28.64 6.71Q29.30 6.71 29.70 6.33L29.70 6.33L29.70 6.33Q30.10 5.96 30.10 5.36L30.10 5.36L30.10 5.36Q30.10 4.69 29.74 4.35L29.74 4.35L29.74 4.35Q29.37 4.02 28.74 4.02L28.74 4.02L25.65 4.02L25.65 6.71ZM25.65 10.96L28.88 10.96L28.88 10.96Q29.58 10.96 29.97 10.61L29.97 10.61L29.97 10.61Q30.37 10.26 30.37 9.52L30.37 9.52L30.37 9.52Q30.37 8.79 29.96 8.41L29.96 8.41L29.96 8.41Q29.55 8.04 28.77 8.04L28.77 8.04L25.65 8.04L25.65 10.96ZM35.48 12.46L35.48 12.46Q34.57 12.46 33.83 12.01L33.83 12.01L33.83 12.01Q33.10 11.56 33.10 10.39L33.10 10.39L33.10 10.39Q33.10 8.97 34.33 8.43L34.33 8.43L34.33 8.43Q35.56 7.88 37.86 7.88L37.86 7.88L37.86 7.15L37.86 7.15Q37.86 6.55 37.54 6.24L37.54 6.24L37.54 6.24Q37.23 5.92 36.37 5.92L36.37 5.92L36.37 5.92Q35.55 5.92 35.20 6.22L35.20 6.22L35.20 6.22Q34.86 6.51 34.86 6.93L34.86 6.93L34.86 7.11L33.46 7.11L33.46 7.11Q33.45 7.03 33.45 6.80L33.45 6.80L33.45 6.80Q33.45 5.84 34.26 5.30L34.26 5.30L34.26 5.30Q35.07 4.76 36.43 4.76L36.43 4.76L36.43 4.76Q37.86 4.76 38.58 5.35L38.58 5.35L38.58 5.35Q39.30 5.94 39.30 7.01L39.30 7.01L39.30 10.78L39.30 10.78Q39.30 11.03 39.44 11.15L39.44 11.15L39.44 11.15Q39.58 11.27 39.79 11.27L39.79 11.27L40.29 11.27L40.29 12.24L40.29 12.24Q39.93 12.42 39.30 12.42L39.30 12.42L39.30 12.42Q38.79 12.42 38.45 12.14L38.45 12.14L38.45 12.14Q38.11 11.87 38.00 11.40L38.00 11.40L37.90 11.40L37.90 11.40Q37.51 11.90 36.90 12.18L36.90 12.18L36.90 12.18Q36.29 12.46 35.48 12.46L35.48 12.46ZM35.90 11.28L35.90 11.28Q36.72 11.28 37.29 10.79L37.29 10.79L37.29 10.79Q37.86 10.29 37.86 9.42L37.86 9.42L37.86 8.97L37.86 8.97Q36.26 8.97 35.42 9.25L35.42 9.25L35.42 9.25Q34.58 9.52 34.58 10.28L34.58 10.28L34.58 10.28Q34.58 10.79 34.91 11.04L34.91 11.04L34.91 11.04Q35.24 11.28 35.90 11.28L35.90 11.28ZM41.36 12.29L41.36 4.93L42.52 4.93L42.66 5.91L42.76 5.91L42.76 5.91Q43.15 5.35 43.77 5.05L43.77 5.05L43.77 5.05Q44.39 4.76 45.18 4.76L45.18 4.76L45.18 4.76Q47.52 4.76 47.52 7.29L47.52 7.29L47.52 12.29L46.07 12.29L46.07 7.48L46.07 7.48Q46.07 6.65 45.70 6.32L45.70 6.32L45.70 6.32Q45.33 5.99 44.62 5.99L44.62 5.99L44.62 5.99Q44.13 5.99 43.71 6.24L43.71 6.24L43.71 6.24Q43.29 6.48 43.04 6.93L43.04 6.93L43.04 6.93Q42.80 7.38 42.80 7.97L42.80 7.97L42.80 12.29L41.36 12.29ZM49.38 12.29L49.38 2.17L50.82 2.17L50.82 8.33L53.73 4.93L55.47 4.93L52.96 7.80L55.61 12.29L53.94 12.29L52.05 8.85L50.82 10.02L50.82 12.29L49.38 12.29Z"></path></g><!----><!----></svg>